<svg xmlns="http://www.w3.org/2000/svg" viewBox="380 1072 937 937"><style>.st0{fill-rule:evenodd;clip-rule:evenodd}</style><rect x="380" y="1072" width="937" height="937" rx="150" fill="#0a1828"/><g fill="#fff">
<rect x="1066.3" y="1268.5" width="54.4" height="54.4"/>
<rect x="1011.9" y="1268.5" width="54.4" height="54.4"/>
<rect x="1066.3" y="1322.9" width="54.4" height="54.4"/>
<rect x="1066.3" y="1377.3" width="54.4" height="54.4"/>
<rect x="1120.7" y="1431.7" width="54.4" height="54.4"/>
<rect x="1120.7" y="1486.1" width="54.4" height="54.4"/>
<rect x="1120.7" y="1540.4" width="54.4" height="54.4"/>
<rect x="1120.7" y="1594.8" width="54.4" height="54.4"/>
<rect x="1120.7" y="1649.2" width="54.4" height="54.4"/>
<rect x="1066.3" y="1703.6" width="54.4" height="54.4"/>
<rect x="1120.7" y="1758" width="54.4" height="54.4"/>
<rect x="1120.7" y="1812.4" width="54.4" height="54.4"/>
<rect x="1011.9" y="1758" width="54.4" height="54.4"/>
<rect x="1011.9" y="1812.4" width="54.4" height="54.4"/>
<rect x="957.5" y="1703.6" width="54.4" height="54.4"/>
<rect x="1011.9" y="1649.2" width="54.4" height="54.4"/>
<rect x="903.1" y="1758" width="54.4" height="54.4"/>
<rect x="903.1" y="1812.4" width="54.4" height="54.4"/>
<rect x="848.7" y="1703.6" width="54.4" height="54.4"/>
<rect x="794.4" y="1758" width="54.4" height="54.4"/>
<rect x="740" y="1812.4" width="54.4" height="54.4"/>
<rect x="794.4" y="1703.6" width="54.4" height="54.4"/>
<rect x="631.2" y="1812.4" width="54.4" height="54.4"/>
<rect x="631.2" y="1758" width="54.4" height="54.4"/>
<rect x="576.8" y="1758" width="54.4" height="54.4"/>
<rect x="740" y="1649.2" width="54.4" height="54.4"/>
<rect x="685.6" y="1703.6" width="54.4" height="54.4"/>
<rect x="522.4" y="1812.4" width="54.4" height="54.4"/>
<rect x="522.4" y="1703.6" width="54.4" height="54.4"/>
<rect x="576.8" y="1649.2" width="54.4" height="54.4"/>
<rect x="631.2" y="1594.8" width="54.4" height="54.4"/>
<rect x="685.6" y="1540.4" width="54.4" height="54.4"/>
<rect x="794.4" y="1540.4" width="54.4" height="54.4"/>
<rect x="740" y="1486.1" width="54.4" height="54.4"/>
<rect x="848.7" y="1431.7" width="54.4" height="54.4"/>
<rect x="903.1" y="1486.1" width="54.4" height="54.4"/>
<rect x="903.1" y="1594.8" width="54.4" height="54.4"/>
<rect x="903.1" y="1649.2" width="54.4" height="54.4"/>
<rect x="794.4" y="1431.7" width="54.4" height="54.4"/>
<rect x="903.1" y="1540.4" width="54.4" height="54.4"/>
<rect x="1011.9" y="1594.8" width="54.4" height="54.4"/>
<rect x="1011.9" y="1540.4" width="54.4" height="54.4"/>
<rect x="1011.9" y="1486.1" width="54.4" height="54.4"/>
<rect x="1011.9" y="1431.7" width="54.4" height="54.4"/>
<rect x="957.5" y="1431.7" width="54.4" height="54.4"/>
<rect x="957.5" y="1377.3" width="54.4" height="54.4"/>
<rect x="903.1" y="1322.9" width="54.4" height="54.4"/>
<rect x="848.7" y="1322.9" width="54.4" height="54.4"/>
<rect x="794.4" y="1322.9" width="54.4" height="54.4"/>
<rect x="740" y="1322.9" width="54.4" height="54.4"/>
<rect x="685.6" y="1377.3" width="54.4" height="54.4"/>
<rect x="631.2" y="1431.7" width="54.4" height="54.4"/>
<rect x="576.8" y="1486.1" width="54.4" height="54.4"/>
<rect x="522.4" y="1540.4" width="54.4" height="54.4"/>
<rect x="522.4" y="1377.3" width="54.4" height="54.4"/>
<rect x="576.8" y="1322.9" width="54.4" height="54.4"/>
<rect x="631.2" y="1268.5" width="54.4" height="54.4"/>
<rect x="576.8" y="1214.1" width="54.4" height="54.4"/>
<rect x="522.4" y="1268.5" width="54.4" height="54.4"/>
<rect x="685.6" y="1214.1" width="54.4" height="54.4"/>
<rect x="740" y="1214.1" width="54.4" height="54.4"/>
<rect x="794.4" y="1214.1" width="54.4" height="54.4"/>
<rect x="848.7" y="1214.1" width="54.4" height="54.4"/>
<rect x="903.1" y="1214.1" width="54.4" height="54.4"/>
<rect x="957.5" y="1214.1" width="54.4" height="54.4"/>
<rect x="1120.7" y="1214.1" width="54.4" height="54.4"/>
<rect x="794.4" y="1594.8" width="54.4" height="54.4"/>
<path class="st0" d="M1242.1,1146.9H455.4V1934h786.7V1146.9z M388.3,1079.9v920.8h920.8v-920.8H388.3z"/>
<path d="M1375.8,1369.8v-289.9h308.9v67h-242.3v156.2h242.3v66.7H1375.8z"/>
<path d="M1711.6,1146.5v-66.7h308.7v66.7h-121.1v223.2h-66.7v-223.2H1711.6z"/>
<path d="M2383.5,1369.8v-289.9h66.7v223.2h177v-37h64.9v103.6H2383.5z"/>
<path d="M1375.8,1685.3v-289.9h308.9v289.9h-66.7v-34.8l-50.7,34.8H1375.8z M1442.5,1618.6h104.2l71.4-49.3V1462h-175.6V1618.6z"/>
<path d="M1376,2000.7v-289.9h248.3l60.5,49.6v185.5l-80.1,54.7H1376z M1442.7,1934H1584l34.1-23.2v-118.9l-17.4-14.5h-158V1934z"/>
<path d="M1711.4,1685.3v-289.9h308.5V1536l-47.5,32.6l47.5,47.1v71h-66.7v-35.9l-39.9-41.7l-135.3,59.8v16.3H1711.4z M1778.1,1588.1
	l175.2-87.3V1462h-175.2V1588.1z"/>
<path d="M2047.6,1369.8v-289.9h308.5v140.6l-47.5,32.6l47.5,47.1v71h-66.7v-35.9l-39.9-41.7l-135.3,59.8v16.3H2047.6z
	 M2114.3,1272.7l175.2-87.3v-38.8h-175.2V1272.7z"/>
<path d="M2047.3,1463.2v-66.7h308.8l-0.3,66.7h-120.5v223.2h-66.7v-223.2H2047.3z"/>
</g></svg>